<svg version="1.1" baseProfile="full" width="180" height="270" 
  xmlns="http://www.w3.org/2000/svg">

  <defs>
    <linearGradient id="logo-t-gradient">
      <stop offset="5%"  stop-color="#03A9F4" />
      <stop offset="100%" stop-color="#81D4FA" />
    </linearGradient>
    <linearGradient id="logo-m-gradient">
      <stop offset="5%"  stop-color="#0277BD" />
      <stop offset="100%" stop-color="#039BE5" />
    </linearGradient>
    <linearGradient id="logo-b-gradient">
      <stop offset="5%"  stop-color="#78909C" />
      <stop offset="100%" stop-color="#B0BEC5" />
    </linearGradient>
  </defs>

  <path d="M 0 135 v -90 a 45 45 0 0 1 45 -45 h 90 a 45 45 0 0 1 45 45 v 45 h -135 a 45 45 0 0 0 -45 45 Z" 
    fill="url('#logo-t-gradient')" />
  <path d="M 0 225 v -90 a 45 45 0 0 1 45 -45 h 135 v 45 a 45 45 0 0 1 -45 45 h -90 a 45 45 0 0 0 -45 45 Z" 
    fill="url('#logo-m-gradient')" />
  <path d="M 0 225 a 45 45 0 0 1 45 -45 h 45 v 45 a 45 45 0 0 1 -90 0" 
    fill="url('#logo-b-gradient')" />
</svg>